<?xml version="1.0" encoding="UTF-8"?>
<svg version="1.1" xmlns="http://www.w3.org/2000/svg" width="500" height="500">
<path d="M0 0 C1.79244141 0.02707031 1.79244141 0.02707031 3.62109375 0.0546875 C6.53992527 0.1013888 9.45701761 0.1668666 12.375 0.25 C13.97844035 3.45688071 13.50422745 6.94182847 13.48852539 10.46337891 C13.48867142 11.3122316 13.48881744 12.16108429 13.4889679 13.03565979 C13.48826966 15.84931977 13.4804814 18.66291404 13.47265625 21.4765625 C13.47079175 23.42426518 13.469368 25.37196832 13.46836853 27.31967163 C13.46454583 32.45220224 13.45471765 37.58470467 13.44366455 42.71722412 C13.43344512 47.95210387 13.42886977 53.18698816 13.42382812 58.421875 C13.41309517 68.69792907 13.3960217 78.97396219 13.375 89.25 C11.93972625 89.4331448 10.50359625 89.60958754 9.06713867 89.78320312 C8.26749191 89.88217896 7.46784515 89.98115479 6.64396667 90.08312988 C1.12164397 90.48926658 -4.40338271 88.12200022 -8.5859375 84.59765625 C-13.66515142 78.93619097 -14.92142177 73.6395521 -15.0390625 66.10546875 C-15.05842865 65.33568192 -15.0777948 64.56589508 -15.0977478 63.77278137 C-15.15725623 61.32779829 -15.20381295 58.88276738 -15.25 56.4375 C-15.28820631 54.77406866 -15.32725957 53.11065653 -15.3671875 51.44726562 C-15.46293383 47.38166759 -15.54707009 43.31597699 -15.625 39.25 C-17.60896605 42.51794498 -19.58633745 45.78983125 -21.5625 49.0625 C-22.12646484 49.99126953 -22.69042969 50.92003906 -23.27148438 51.87695312 C-23.80966797 52.76962891 -24.34785156 53.66230469 -24.90234375 54.58203125 C-25.64859009 55.81530151 -25.64859009 55.81530151 -26.40991211 57.07348633 C-27.75053335 59.31605599 -27.75053335 59.31605599 -28.625 62.25 C-29.285 62.25 -29.945 62.25 -30.625 62.25 C-30.625 62.91 -30.625 63.57 -30.625 64.25 C-31.285 64.25 -31.945 64.25 -32.625 64.25 C-32.625 64.91 -32.625 65.57 -32.625 66.25 C-39.22307371 70.31035305 -44.90416541 71.5435963 -52.625 70.25 C-63.56072218 66.06869446 -67.97138035 54.4290098 -73.34375 44.8671875 C-73.9639502 43.76395142 -73.9639502 43.76395142 -74.59667969 42.63842773 C-75.60631109 40.84239268 -76.61568244 39.04621144 -77.625 37.25 C-77.62387207 38.38429443 -77.62274414 39.51858887 -77.62158203 40.68725586 C-77.62527766 44.93140579 -77.6682924 49.17443467 -77.72265625 53.41821289 C-77.74072559 55.24821712 -77.74840133 57.07835677 -77.74511719 58.90844727 C-77.72509992 77.26928996 -77.72509992 77.26928996 -83.10522461 83.79736328 C-87.09885878 87.61457184 -91.23003543 89.17100709 -96.625 90.25 C-98.20726727 90.15139782 -99.7869087 89.99847324 -101.359375 89.796875 C-102.56158691 89.64750488 -102.56158691 89.64750488 -103.78808594 89.49511719 C-104.6973584 89.37378418 -104.6973584 89.37378418 -105.625 89.25 C-108.0382351 70.65276763 -102.04705357 57.67694699 -93.48925781 41.77392578 C-90.70777877 36.51621644 -88.20341342 31.13830015 -85.6875 25.75 C-81.9036641 17.77824256 -77.9509551 9.94222733 -73.625 2.25 C-70.985 3.57 -68.345 4.89 -65.625 6.25 C-65.625 6.91 -65.625 7.57 -65.625 8.25 C-64.965 8.25 -64.305 8.25 -63.625 8.25 C-63.25213867 8.91008057 -62.87927734 9.57016113 -62.49511719 10.25024414 C-60.78858866 13.27109624 -59.08179643 16.29179926 -57.375 19.3125 C-56.49521484 20.87000977 -56.49521484 20.87000977 -55.59765625 22.45898438 C-52.61919834 27.72985089 -49.63513969 32.99715723 -46.625 38.25 C-41.58738811 30.97046623 -37.25719148 23.40249492 -33.03710938 15.62695312 C-28.79920596 8.02284959 -24.73182738 4.12703713 -16.53222656 1.01757812 C-11.07119279 -0.42426687 -5.60722714 -0.16252832 0 0 Z " fill="#F9F9F8" transform="translate(338.625,204.75)"/>
<path d="M0 0 C5.49856774 0.08164896 9.9810543 0.92622884 14.93798828 3.25317383 C15.84548828 3.66567383 16.75298828 4.07817383 17.68798828 4.50317383 C24.72804792 9.97877577 27.7749012 18.98214812 31.31298828 26.87817383 C35.52463402 36.2183547 39.96651559 45.29928788 44.93798828 54.25317383 C45.38787109 53.3534082 45.83775391 52.45364258 46.30126953 51.52661133 C61.42236328 21.28442383 61.42236328 21.28442383 62.71582031 18.70703125 C63.50829701 17.11590395 64.29115193 15.51993371 65.0625 13.91845703 C68.26469054 7.30876875 71.53291509 3.89174482 78.37548828 1.44067383 C85.1085351 -0.39467431 92.02504519 0.00430788 98.93798828 0.25317383 C100.16702779 3.94029237 99.61945651 4.52384984 97.94580078 7.90942383 C97.49253418 8.83996582 97.03926758 9.77050781 96.57226562 10.72924805 C96.0742041 11.72714355 95.57614258 12.72503906 95.06298828 13.75317383 C94.03641664 15.84926852 93.01038246 17.94562652 91.98486328 20.04223633 C91.21045898 21.61473145 91.21045898 21.61473145 90.42041016 23.21899414 C88.70666873 26.72663223 87.04905795 30.25795474 85.40014648 33.79638672 C81.90619199 41.29038163 78.19558448 48.61717586 74.25317383 55.88452148 C71.04701201 61.86888762 68.28966237 68.01454778 65.67602539 74.27880859 C63.24802479 79.98133419 60.40063881 84.97558351 54.93798828 88.25317383 C47.97529738 90.98364085 41.68971412 90.58155752 34.87548828 87.69067383 C33.90611328 87.21629883 32.93673828 86.74192383 31.93798828 86.25317383 C31.93798828 85.59317383 31.93798828 84.93317383 31.93798828 84.25317383 C31.27798828 84.25317383 30.61798828 84.25317383 29.93798828 84.25317383 C29.93798828 83.59317383 29.93798828 82.93317383 29.93798828 82.25317383 C29.27798828 82.25317383 28.61798828 82.25317383 27.93798828 82.25317383 C26.27035109 78.77447157 24.60390673 75.2951995 22.93798828 71.81567383 C22.43614014 70.76758545 21.93429199 69.71949707 21.41723633 68.63964844 C18.50168694 62.54383806 15.61109085 56.43742158 12.75048828 50.31567383 C8.28587792 40.78196479 3.56913451 31.37624406 -1.23779297 22.01098633 C-4.70363349 15.22423758 -7.95976293 8.61104461 -10.06201172 1.25317383 C-7.80209633 -1.00674156 -3.05016222 0.00469478 0 0 Z " fill="#F9F8F7" transform="translate(158.06201171875,204.746826171875)"/>
<path d="M0 0 C0.66 0 1.32 0 2 0 C2 14.19 2 28.38 2 43 C-1.03744744 39.96255256 -0.37754106 36.42571679 -0.44921875 32.34375 C-0.47095657 31.48567749 -0.4926944 30.62760498 -0.51509094 29.74353027 C-0.55903659 27.92792178 -0.59822988 26.11219302 -0.63305664 24.29638672 C-0.68728577 21.51100344 -0.75746343 18.72636459 -0.83007812 15.94140625 C-0.87073653 14.17970905 -0.91048089 12.41799047 -0.94921875 10.65625 C-0.96997971 9.81976929 -0.99074066 8.98328857 -1.01213074 8.12145996 C-1.11590224 2.23180449 -1.11590224 2.23180449 0 0 Z " fill="#D2CFCE" transform="translate(324,238)"/>
<path d="M0 0 C1.0528418 0.01353516 1.0528418 0.01353516 2.12695312 0.02734375 C3.85561525 0.05086296 5.58410145 0.08673287 7.3125 0.125 C7.3125 1.445 7.3125 2.765 7.3125 4.125 C6.9825 3.465 6.6525 2.805 6.3125 2.125 C0.7025 2.125 -4.9075 2.125 -10.6875 2.125 C-7.00662647 -0.32891569 -4.24394412 -0.10302759 0 0 Z " fill="#EEEDED" transform="translate(249.6875,204.875)"/>
<path d="M0 0 C1.95292969 -0.02126953 1.95292969 -0.02126953 3.9453125 -0.04296875 C7.98841185 0.19415139 11.05565048 0.93257087 14.875 2.1875 C12.04115892 3.01264784 9.70564749 3.26686233 6.765625 3.06640625 C6.01152344 3.01806641 5.25742188 2.96972656 4.48046875 2.91992188 C3.70316406 2.86384766 2.92585937 2.80777344 2.125 2.75 C1.33222656 2.69779297 0.53945312 2.64558594 -0.27734375 2.59179688 C-2.22693997 2.46260676 -4.17602886 2.32580035 -6.125 2.1875 C-5.795 3.5075 -5.465 4.8275 -5.125 6.1875 C-7.125 5.1875 -7.125 5.1875 -7.8125 3.1875 C-7.915625 2.5275 -8.01875 1.8675 -8.125 1.1875 C-6.17105013 -0.76644987 -2.58007879 0.01262269 0 0 Z " fill="#E2E0DE" transform="translate(156.125,204.8125)"/>
<path d="M0 0 C0.66 0 1.32 0 2 0 C2 2.97 2 5.94 2 9 C1.01 9.495 1.01 9.495 0 10 C-1.125 2.25 -1.125 2.25 0 0 Z " fill="#DCD3D3" transform="translate(324,238)"/>
<path d="M0 0 C-3.3340947 2.19097652 -6.04179141 3.43454163 -10 4 C-4.75 -1.425 -4.75 -1.425 0 0 Z " fill="#D6D6D5" transform="translate(238,208)"/>
<path d="M0 0 C0.66 0.33 1.32 0.66 2 1 C0.02 3.31 -1.96 5.62 -4 8 C-4.33 7.34 -4.66 6.68 -5 6 C-3.35 4.02 -1.7 2.04 0 0 Z " fill="#BBBBB9" transform="translate(313,210)"/>
<path d="M0 0 C3 1 3 1 4.25 3.375 C5 6 5 6 4 9 C0 2.25 0 2.25 0 0 Z " fill="#DEDEDC" transform="translate(151,213)"/>
</svg>
